<svg width="14" height="14" viewBox="0 0 14 14" fill="none" xmlns="http://www.w3.org/2000/svg">
<path d="M6.99967 13.6667C5.13856 13.6667 3.56217 13.0209 2.27051 11.7292C0.978841 10.4375 0.333008 8.86116 0.333008 7.00004C0.333008 5.13893 0.978841 3.56254 2.27051 2.27088C3.56217 0.97921 5.13856 0.333377 6.99967 0.333377C7.95801 0.333377 8.87467 0.531155 9.74967 0.92671C10.6247 1.32227 11.3747 1.88838 11.9997 2.62504V1.16671C11.9997 0.930599 12.0797 0.732821 12.2397 0.573377C12.3997 0.413933 12.5975 0.333932 12.833 0.333377C13.0686 0.332821 13.2666 0.412821 13.4272 0.573377C13.5877 0.733933 13.6675 0.93171 13.6663 1.16671V5.33338C13.6663 5.56949 13.5863 5.76754 13.4263 5.92754C13.2663 6.08754 13.0686 6.16727 12.833 6.16671H8.66634C8.43023 6.16671 8.23245 6.08671 8.07301 5.92671C7.91356 5.76671 7.83356 5.56893 7.83301 5.33338C7.83245 5.09782 7.91245 4.90004 8.07301 4.74004C8.23356 4.58004 8.43134 4.50004 8.66634 4.50004H11.333C10.8886 3.72227 10.2811 3.11115 9.51051 2.66671C8.73995 2.22227 7.90301 2.00004 6.99967 2.00004C5.61079 2.00004 4.43023 2.48615 3.45801 3.45838C2.48579 4.4306 1.99967 5.61116 1.99967 7.00004C1.99967 8.38893 2.48579 9.56949 3.45801 10.5417C4.43023 11.5139 5.61079 12 6.99967 12C7.94412 12 8.80884 11.7606 9.59384 11.2817C10.3788 10.8028 10.9863 10.1603 11.4163 9.35421C11.5275 9.15977 11.6838 9.02449 11.8855 8.94838C12.0872 8.87227 12.2919 8.86866 12.4997 8.93754C12.7219 9.00699 12.8816 9.15282 12.9788 9.37504C13.0761 9.59727 13.0691 9.8056 12.958 10C12.3886 11.1112 11.5761 12 10.5205 12.6667C9.46495 13.3334 8.29134 13.6667 6.99967 13.6667Z" fill="white"/>
</svg>
