<svg width="14" height="14" viewBox="0 0 14 14" fill="none" xmlns="http://www.w3.org/2000/svg">
<path d="M6.99967 13.6666C5.13856 13.6666 3.56217 13.0208 2.27051 11.7291C0.978841 10.4374 0.333008 8.86103 0.333008 6.99992C0.333008 5.13881 0.978841 3.56242 2.27051 2.27075C3.56217 0.979088 5.13856 0.333255 6.99967 0.333255C7.95801 0.333255 8.87467 0.531033 9.74967 0.926588C10.6247 1.32214 11.3747 1.88825 11.9997 2.62492V1.16659C11.9997 0.930477 12.0797 0.732699 12.2397 0.573255C12.3997 0.41381 12.5975 0.33381 12.833 0.333255C13.0686 0.332699 13.2666 0.412699 13.4272 0.573255C13.5877 0.73381 13.6675 0.931588 13.6663 1.16659V5.33325C13.6663 5.56937 13.5863 5.76742 13.4263 5.92742C13.2663 6.08742 13.0686 6.16714 12.833 6.16659H8.66634C8.43023 6.16659 8.23245 6.08659 8.07301 5.92659C7.91356 5.76659 7.83356 5.56881 7.83301 5.33325C7.83245 5.0977 7.91245 4.89992 8.07301 4.73992C8.23356 4.57992 8.43134 4.49992 8.66634 4.49992H11.333C10.8886 3.72214 10.2811 3.11103 9.51051 2.66659C8.73995 2.22214 7.90301 1.99992 6.99967 1.99992C5.61079 1.99992 4.43023 2.48603 3.45801 3.45825C2.48579 4.43048 1.99967 5.61103 1.99967 6.99992C1.99967 8.38881 2.48579 9.56937 3.45801 10.5416C4.43023 11.5138 5.61079 11.9999 6.99967 11.9999C7.94412 11.9999 8.80884 11.7605 9.59384 11.2816C10.3788 10.8027 10.9863 10.1602 11.4163 9.35409C11.5275 9.15964 11.6838 9.02437 11.8855 8.94826C12.0872 8.87214 12.2919 8.86853 12.4997 8.93742C12.7219 9.00687 12.8816 9.1527 12.9788 9.37492C13.0761 9.59715 13.0691 9.80548 12.958 9.99992C12.3886 11.111 11.5761 11.9999 10.5205 12.6666C9.46495 13.3333 8.29134 13.6666 6.99967 13.6666Z" fill="black"/>
</svg>
