<svg width="427" height="109" viewBox="0 0 427 109" fill="none" xmlns="http://www.w3.org/2000/svg">
<path d="M349.959 49.8036L384.381 36.0705C399.84 29.9027 417.371 37.4311 423.537 52.885C429.702 68.3389 422.168 85.8671 406.708 92.0349L372.286 105.768C356.826 111.936 339.296 104.407 333.13 88.9535C327.061 73.7411 334.266 56.5187 349.239 50.1011L349.959 49.8036Z" fill="#D9F92F" stroke="black" stroke-width="2"/>
<path d="M366.578 90.4795C365.287 90.992 364.2 91.0944 363.34 90.8075C362.479 90.5205 361.802 89.762 361.331 88.6141C360.859 87.4662 360.839 86.4208 361.249 85.6008C361.659 84.7809 362.54 84.1249 363.831 83.592C365.123 83.059 366.25 82.9565 367.132 83.2435C368.013 83.5305 368.69 84.2889 369.161 85.4779C370.063 87.7532 369.202 89.4341 366.578 90.4795Z" fill="black"/>
<path d="M371.333 88.021L369.714 59.5281L377.708 56.3303L396.116 78.1203L389.454 80.7851L375.781 62.8899L375.556 62.9718L377.913 85.3767L371.333 88.0005V88.021ZM374.326 81.6665L372.604 77.3208L388.634 70.9253L390.356 75.271L374.326 81.6665Z" fill="black"/>
<path d="M397.797 77.4637L387.773 52.3325L393.984 49.8522L404.008 74.9834L397.797 77.4637Z" fill="black"/>
<path d="M28.1483 70.082C23.3926 70.082 19.2314 69.5285 15.6647 68.4626C12.0979 67.3762 9.12564 65.8183 6.74781 63.7685C4.36998 61.7391 2.62761 59.2793 1.50019 56.389C0.372775 53.4987 -0.119189 50.2804 0.0243007 46.7547L15.2957 43.3929C15.4392 46.5087 16.0951 49.0505 17.284 50.9774C18.473 52.9042 20.0923 54.3391 22.1217 55.2616C24.151 56.184 26.4264 56.635 28.9477 56.635C30.977 56.635 32.7809 56.389 34.3388 55.8765C35.8967 55.3641 37.1471 54.6466 38.049 53.7447C38.9715 52.8223 39.4224 51.7563 39.4224 50.5264C39.4224 48.907 38.8075 47.5541 37.5981 46.5087C36.3682 45.4633 34.6873 44.5613 32.5554 43.8029C30.4236 43.065 27.9843 42.3065 25.2785 41.5686C22.3677 40.7486 19.4569 39.8467 16.5666 38.8628C13.6763 37.8788 11.0525 36.6489 8.67467 35.1525C6.29684 33.6561 4.36998 31.7293 2.91459 29.3514C1.4592 26.9736 0.72125 24.0218 0.72125 20.4961C0.72125 16.1504 1.82817 12.4402 4.04201 9.38589C6.25585 6.33161 9.31013 4.01528 13.2048 2.41639C17.0996 0.817509 21.5682 0.0180664 26.5904 0.0180664C31.879 0.0180664 36.6141 0.920001 40.7548 2.72387C44.8955 4.52774 48.0933 7.15155 50.3276 10.6158C52.562 14.08 53.4434 18.3232 52.972 23.3454L37.9055 25.7847C37.967 23.7554 37.7621 21.9515 37.2906 20.3936C36.8191 18.8357 36.0812 17.5033 35.0973 16.4169C34.1133 15.3305 32.8834 14.49 31.387 13.9161C29.8906 13.3421 28.1278 13.0551 26.0984 13.0551C24.0691 13.0551 22.2447 13.3216 20.8508 13.8751C19.4569 14.4285 18.4115 15.1665 17.694 16.1094C16.9766 17.0523 16.6281 18.1388 16.6281 19.3687C16.6281 20.8036 17.1611 21.9925 18.2475 22.9354C19.3339 23.8783 20.8918 24.7188 22.9416 25.4362C24.971 26.1537 27.3898 26.8711 30.1776 27.6296C33.0884 28.4495 36.0402 29.3514 38.992 30.3354C41.9438 31.3193 44.6701 32.6107 47.1914 34.2096C49.7127 35.8085 51.7215 37.8583 53.2589 40.3797C54.7963 42.901 55.5548 46.0782 55.5548 49.9525C55.5548 54.4416 54.3863 58.1724 52.0495 61.1651C49.7127 64.1579 46.4739 66.3923 42.3742 67.8887C38.2745 69.3851 33.5189 70.123 28.1688 70.123L28.1483 70.082Z" fill="black"/>
<path d="M60.9268 83.7177V14.8631H75.3987V31.4669H76.1162C76.8541 27.4697 77.9815 24.1285 79.4779 21.4432C80.9743 18.7578 82.9012 16.749 85.238 15.4371C87.5748 14.1047 90.4241 13.4487 93.7449 13.4487C97.9471 13.4487 101.534 14.5147 104.486 16.667C107.438 18.7988 109.672 21.9556 111.21 26.1373C112.747 30.319 113.505 35.4641 113.505 41.5727C113.505 48.1527 112.645 53.5643 110.902 57.7665C109.16 61.9687 106.802 65.0845 103.83 67.0934C100.837 69.1022 97.4551 70.1066 93.6424 70.1066C90.5881 70.1066 87.8823 69.4712 85.5455 68.1798C83.2087 66.8884 81.2613 64.9 79.7444 62.2147C78.207 59.5294 77.1411 56.1471 76.5466 52.0884H75.6242C75.9727 54.0563 76.2597 56.1062 76.5466 58.2585C76.8131 60.3903 77.0386 62.5017 77.2026 64.572C77.3666 66.6424 77.4486 68.6307 77.4486 70.5371V83.7791H60.9473L60.9268 83.7177ZM87.4109 56.5366C89.5837 56.5366 91.3671 55.8602 92.761 54.5073C94.1549 53.1544 95.1798 51.371 95.8153 49.1572C96.4507 46.9433 96.7787 44.627 96.7787 42.1877C96.7787 39.4818 96.4302 37.0015 95.7128 34.8082C94.9953 32.5943 93.9499 30.8315 92.556 29.5196C91.1621 28.1872 89.4607 27.5312 87.4109 27.5312C86.1194 27.5312 84.869 27.8182 83.6391 28.3922C82.4092 28.9661 81.3228 29.8475 80.3799 31.0365C79.4369 32.2254 78.658 33.7423 78.084 35.5666C77.5101 37.391 77.2231 39.6048 77.2231 42.1877V42.8026C77.2231 44.832 77.4281 46.6153 77.838 48.0912C78.248 49.5876 78.781 50.879 79.4574 51.9655C80.1339 53.0519 80.9128 53.9333 81.7943 54.6098C82.6757 55.2862 83.5981 55.7782 84.5411 56.0857C85.484 56.3931 86.4474 56.5366 87.3904 56.5366H87.4109Z" fill="black"/>
<path d="M144.457 70.0833C139.291 70.0833 134.72 69.0584 130.702 66.9675C126.685 64.8972 123.569 61.7814 121.334 57.5997C119.1 53.418 117.973 48.1704 117.973 41.8569C117.973 35.5433 119.141 29.8857 121.478 25.704C123.815 21.5223 127.013 18.4476 131.051 16.4387C135.089 14.4298 139.66 13.4254 144.744 13.4254C149.827 13.4254 154.665 14.4708 158.642 16.5412C162.618 18.6115 165.693 21.7273 167.907 25.909C170.121 30.0907 171.207 35.3588 171.207 41.7544C171.207 48.1499 170.039 53.7255 167.702 57.9072C165.365 62.0889 162.167 65.1637 158.129 67.1315C154.091 69.0994 149.52 70.0833 144.436 70.0833H144.457ZM144.867 57.9482C146.978 57.9482 148.741 57.3537 150.155 56.1648C151.59 54.9759 152.656 53.2335 153.415 50.9172C154.153 48.6009 154.542 45.8541 154.542 42.6563C154.542 39.1306 154.132 36.1583 153.312 33.7394C152.492 31.3206 151.324 29.4758 149.807 28.1843C148.269 26.8929 146.425 26.2575 144.252 26.2575C142.222 26.2575 140.48 26.8519 139.066 28.0409C137.631 29.2298 136.544 30.9721 135.806 33.2885C135.048 35.6048 134.679 38.3721 134.679 41.6314C134.679 46.797 135.581 50.7942 137.385 53.6435C139.189 56.4928 141.669 57.9277 144.867 57.9277V57.9482Z" fill="black"/>
<path d="M214.213 68.6495V1.43481H241.312C245.453 1.43481 249.142 1.80379 252.361 2.56223C255.579 3.32068 258.346 4.4071 260.622 5.88299C262.897 7.33839 264.619 9.16276 265.808 11.3356C266.997 13.5084 267.591 16.0503 267.591 18.9816C267.591 21.7079 267.038 24.1472 265.91 26.32C264.783 28.4929 262.999 30.2352 260.519 31.5676C258.039 32.9 254.8 33.72 250.782 34.0685V34.9909C257.629 35.3394 262.61 36.9178 265.705 39.7876C268.8 42.6368 270.338 46.4086 270.338 51.1027C270.338 55.0385 269.313 58.2977 267.284 60.8805C265.254 63.4633 262.282 65.4107 258.367 66.7431C254.451 68.0755 249.634 68.7315 243.854 68.7315H214.213V68.6495ZM230.714 29.3333H239.57C243.444 29.3333 246.396 28.6979 248.425 27.4064C250.454 26.115 251.479 24.2087 251.479 21.7079C251.479 19.33 250.557 17.5467 248.732 16.3577C246.908 15.1688 244.141 14.5744 240.492 14.5744H230.714V29.3538V29.3333ZM230.714 55.4074H243.136C246.601 55.4074 249.286 54.772 251.172 53.5216C253.078 52.2712 254.021 50.4878 254.021 48.1714C254.021 45.5886 252.955 43.6823 250.803 42.4114C248.671 41.161 245.453 40.5255 241.168 40.5255H230.673V55.3869L230.714 55.4074Z" fill="black"/>
<path d="M305.291 70.0844C300.535 70.0844 296.251 69.3465 292.459 67.8501C288.646 66.3537 285.428 64.1604 282.783 61.2291C280.139 58.3183 278.11 54.6695 276.716 50.3239C275.322 45.9782 274.625 40.997 274.625 35.3599C274.625 27.345 275.937 20.7445 278.54 15.5379C281.144 10.3518 284.813 6.45703 289.548 3.87422C294.263 1.29141 299.715 0 305.885 0C310.641 0 314.905 0.737947 318.676 2.19334C322.448 3.64874 325.646 5.84208 328.311 8.77337C330.955 11.6842 332.984 15.3534 334.378 19.7196C335.772 24.1063 336.469 29.1694 336.469 34.95C336.469 40.7306 335.731 45.9167 334.276 50.3239C332.82 54.731 330.709 58.4003 327.962 61.3316C325.215 64.2424 321.915 66.4357 318.082 67.8911C314.249 69.3465 309.985 70.0844 305.291 70.0844ZM305.885 56.5349C308.94 56.5349 311.461 55.7765 313.47 54.2391C315.479 52.7017 316.975 50.4059 317.959 47.3106C318.943 44.2153 319.435 40.3411 319.435 35.6469C319.435 30.6863 318.902 26.5866 317.856 23.3273C316.811 20.0681 315.233 17.6082 313.162 15.9478C311.092 14.2875 308.489 13.447 305.373 13.447C302.257 13.447 299.879 14.2465 297.829 15.8454C295.8 17.4442 294.263 19.8426 293.238 23.0198C292.213 26.2176 291.7 30.1943 291.7 34.9295C291.7 38.5372 291.987 41.694 292.561 44.3998C293.135 47.1261 294.017 49.3809 295.205 51.1643C296.394 52.9682 297.87 54.3006 299.633 55.182C301.396 56.0634 303.466 56.5144 305.844 56.5144L305.885 56.5349Z" fill="black"/>
<path d="M343.271 68.6495V1.43481H359.874V68.6495H343.271Z" fill="black"/>
<path d="M195.478 27.4583H207.492V14.624H195.478V2.32019H186.069V2.50383C185.671 7.11521 184.617 10.5431 182.887 12.8488C181.176 15.1137 178.252 16.5012 174.154 17.0521H173.876V27.4379H179.625C182.767 27.4379 185.552 27.4379 189.491 27.4787V28.3969C188.456 28.4989 185.99 28.8458 183.643 30.7026C180.579 33.1511 179.784 36.477 179.605 37.436V49.7194C179.605 56.4937 181.096 61.4927 184.14 64.7166C187.143 67.9405 191.738 69.5524 197.865 69.5524C199.038 69.5524 200.431 69.4708 202.042 69.2872C203.613 69.1443 205.423 68.7362 207.492 68.1241V53.7799C206.637 54.2492 205.702 54.6165 204.707 54.9225C203.713 55.1878 202.738 55.3306 201.823 55.3306C200.033 55.3306 198.541 54.7797 197.328 53.6779C196.075 52.6168 195.478 50.7804 195.478 48.1891V27.4583Z" fill="black"/>
</svg>
