<svg width="140" height="36" viewBox="0 0 140 36" fill="none" xmlns="http://www.w3.org/2000/svg">
<path d="M114.825 16.6071L126.114 12.0711C131.093 10.0704 136.744 12.5118 138.732 17.5306C140.72 22.5495 138.29 28.2378 133.311 30.2386L122.022 34.7746C117.042 36.7752 111.392 34.3339 109.404 29.3151C107.416 24.2962 109.846 18.608 114.825 16.6071Z" fill="#D9F92F" stroke="black"/>
<path d="M120.213 29.8831C119.79 30.0524 119.433 30.0862 119.151 29.9914C118.869 29.8967 118.647 29.6462 118.492 29.267C118.338 28.8879 118.331 28.5426 118.465 28.2718C118.6 28.001 118.889 27.7844 119.312 27.6083C119.736 27.4323 120.106 27.3985 120.395 27.4933C120.684 27.588 120.906 27.8385 121.06 28.2312C121.356 28.9827 121.074 29.5378 120.213 29.8831Z" fill="black"/>
<path d="M121.772 29.0712L121.241 19.6606L123.863 18.6045L129.899 25.8012L127.715 26.6813L123.231 20.7709L123.157 20.798L123.93 28.1978L121.772 29.0644V29.0712ZM122.754 26.9724L122.189 25.5371L127.446 23.4248L128.01 24.8601L122.754 26.9724Z" fill="black"/>
<path d="M130.451 25.5844L127.164 17.2842L129.201 16.465L132.488 24.7652L130.451 25.5844Z" fill="black"/>
<path d="M9.23073 23.1459C7.67119 23.1459 6.3066 22.9631 5.13695 22.611C3.9673 22.2522 2.99259 21.7377 2.21283 21.0607C1.43306 20.3904 0.861679 19.578 0.491962 18.6234C0.122245 17.6688 -0.0390859 16.6059 0.00796897 15.4414L5.01595 14.3311C5.06301 15.3602 5.27812 16.1997 5.668 16.8361C6.05788 17.4725 6.58893 17.9464 7.25442 18.2511C7.91991 18.5557 8.66607 18.7047 9.49289 18.7047C10.1584 18.7047 10.7499 18.6234 11.2608 18.4542C11.7717 18.2849 12.1817 18.048 12.4775 17.7501C12.78 17.4454 12.9279 17.0934 12.9279 16.6872C12.9279 16.1523 12.7262 15.7055 12.3296 15.3602C11.9263 15.0149 11.3751 14.717 10.676 14.4665C9.97688 14.2228 9.17695 13.9723 8.28963 13.7286C7.33509 13.4578 6.38055 13.1599 5.43273 12.8349C4.48491 12.51 3.62447 12.1038 2.84471 11.6095C2.06494 11.1153 1.43306 10.4789 0.955789 9.69359C0.478518 8.90825 0.236521 7.93335 0.236521 6.76888C0.236521 5.33361 0.599516 4.10821 1.32551 3.09945C2.0515 2.0907 3.05309 1.32567 4.3303 0.797601C5.6075 0.269529 7.07293 0.00549316 8.71985 0.00549316C10.4542 0.00549316 12.007 0.30338 13.3648 0.899154C14.7227 1.49493 15.7714 2.36151 16.5041 3.50566C17.2368 4.64982 17.5258 6.05124 17.3712 7.70993L12.4305 8.51558C12.4506 7.84533 12.3834 7.24956 12.2288 6.73503C12.0742 6.2205 11.8322 5.78044 11.5095 5.42162C11.1869 5.0628 10.7835 4.78522 10.2928 4.59566C9.80211 4.40609 9.22401 4.31131 8.55852 4.31131C7.89302 4.31131 7.29476 4.39932 6.83765 4.58212C6.38055 4.76491 6.03772 5.00864 5.80244 5.32007C5.56717 5.63149 5.45289 5.99031 5.45289 6.39652C5.45289 6.87043 5.62767 7.2631 5.98394 7.57453C6.34021 7.88595 6.85109 8.16353 7.52331 8.40049C8.1888 8.63744 8.98201 8.8744 9.89622 9.12489C10.8508 9.3957 11.8187 9.69359 12.7867 10.0186C13.7547 10.3435 14.6488 10.77 15.4756 11.2981C16.3024 11.8262 16.9612 12.5032 17.4653 13.3359C17.9695 14.1687 18.2182 15.218 18.2182 16.4976C18.2182 17.9803 17.8351 19.2124 17.0687 20.2009C16.3024 21.1893 15.2403 21.9273 13.8959 22.4215C12.5515 22.9157 10.9919 23.1594 9.23745 23.1594L9.23073 23.1459Z" fill="black"/>
<path d="M19.9795 27.6497V4.90879H24.7253V10.3926H24.9606C25.2026 9.07244 25.5723 7.9689 26.063 7.08201C26.5537 6.19512 27.1856 5.53165 27.9519 5.09836C28.7183 4.6583 29.6526 4.44165 30.7416 4.44165C32.1197 4.44165 33.296 4.7937 34.264 5.50457C35.232 6.20866 35.9647 7.25127 36.4689 8.63238C36.9731 10.0135 37.2218 11.7128 37.2218 13.7303C37.2218 15.9035 36.9394 17.6908 36.3681 19.0787C35.7967 20.4666 35.0236 21.4957 34.0489 22.1591C33.0675 22.8226 31.9583 23.1544 30.708 23.1544C29.7064 23.1544 28.8191 22.9445 28.0528 22.518C27.2865 22.0914 26.6479 21.4347 26.1504 20.5479C25.6463 19.661 25.2967 18.5439 25.1018 17.2034H24.7993C24.9135 17.8533 25.0077 18.5303 25.1018 19.2412C25.1891 19.9453 25.2631 20.6426 25.3169 21.3264C25.3706 22.0102 25.3975 22.6669 25.3975 23.2965V27.6701H19.9862L19.9795 27.6497ZM28.6645 18.6725C29.377 18.6725 29.9619 18.4491 30.419 18.0023C30.8761 17.5554 31.2122 16.9664 31.4206 16.2353C31.629 15.5041 31.7365 14.7391 31.7365 13.9334C31.7365 13.0397 31.6222 12.2206 31.387 11.4962C31.1517 10.765 30.8089 10.1827 30.3517 9.74945C29.8946 9.30939 29.3367 9.09275 28.6645 9.09275C28.241 9.09275 27.8309 9.18753 27.4276 9.37709C27.0243 9.56666 26.668 9.85778 26.3588 10.2504C26.0496 10.6431 25.7941 11.1441 25.6059 11.7466C25.4177 12.3492 25.3236 13.0804 25.3236 13.9334V14.1365C25.3236 14.8068 25.3908 15.3958 25.5253 15.8832C25.6597 16.3774 25.8345 16.804 26.0563 17.1628C26.2781 17.5216 26.5336 17.8127 26.8226 18.0361C27.1117 18.2595 27.4142 18.422 27.7234 18.5236C28.0326 18.6251 28.3486 18.6725 28.6578 18.6725H28.6645Z" fill="black"/>
<path d="M47.3725 23.1469C45.6785 23.1469 44.1795 22.8084 42.8619 22.1178C41.5444 21.4341 40.5226 20.405 39.7899 19.0239C39.0572 17.6428 38.6875 15.9096 38.6875 13.8244C38.6875 11.7392 39.0707 9.87064 39.837 8.48953C40.6033 7.10842 41.652 6.09289 42.9762 5.42942C44.3005 4.76594 45.7995 4.4342 47.4666 4.4342C49.1337 4.4342 50.7201 4.77948 52.0242 5.46327C53.3283 6.14705 54.3366 7.17612 55.0626 8.55723C55.7886 9.93834 56.1449 11.6783 56.1449 13.7906C56.1449 15.9028 55.7617 17.7443 54.9954 19.1254C54.2291 20.5066 53.1804 21.5221 51.8562 22.172C50.5319 22.8219 49.0329 23.1469 47.3658 23.1469H47.3725ZM47.5069 19.139C48.1993 19.139 48.7774 18.9426 49.2413 18.55C49.7118 18.1573 50.0614 17.5818 50.3101 16.8168C50.5521 16.0518 50.6798 15.1446 50.6798 14.0884C50.6798 12.924 50.5453 11.9423 50.2765 11.1434C50.0076 10.3445 49.6244 9.73524 49.127 9.30872C48.6228 8.8822 48.0178 8.67232 47.3053 8.67232C46.6398 8.67232 46.0684 8.86866 45.6046 9.26132C45.134 9.65399 44.7778 10.2295 44.5358 10.9945C44.287 11.7595 44.166 12.6735 44.166 13.7499C44.166 15.456 44.4618 16.7762 45.0534 17.7172C45.6449 18.6583 46.4583 19.1322 47.5069 19.1322V19.139Z" fill="black"/>
<path d="M70.2471 22.6732V0.473877H79.1337C80.4916 0.473877 81.7016 0.59574 82.757 0.846236C83.8123 1.09673 84.7198 1.45555 85.466 1.943C86.2121 2.42368 86.7768 3.02623 87.1667 3.74386C87.5566 4.4615 87.7515 5.301 87.7515 6.26913C87.7515 7.16956 87.57 7.97521 87.2003 8.69285C86.8306 9.41049 86.2457 9.98595 85.4324 10.426C84.619 10.8661 83.5569 11.1369 82.2394 11.252V11.5566C84.4845 11.6717 86.118 12.193 87.1331 13.1408C88.1481 14.0819 88.6523 15.3276 88.6523 16.878C88.6523 18.1778 88.3162 19.2543 87.6507 20.1073C86.9852 20.9604 86.0105 21.6035 84.7265 22.0436C83.4426 22.4837 81.8629 22.7003 79.9673 22.7003H70.2471V22.6732ZM75.6584 9.68806H78.5624C79.8328 9.68806 80.8008 9.47819 81.4663 9.05167C82.1318 8.62515 82.4679 7.99552 82.4679 7.16956C82.4679 6.38422 82.1654 5.79522 81.5671 5.40255C80.9689 5.00988 80.0614 4.81355 78.8648 4.81355H75.6584V9.69483V9.68806ZM75.6584 18.2997H79.732C80.868 18.2997 81.7486 18.0898 82.3671 17.6768C82.9922 17.2639 83.3015 16.6749 83.3015 15.9098C83.3015 15.0568 82.9519 14.4272 82.2461 14.0074C81.547 13.5944 80.4916 13.3846 79.0867 13.3846H75.6449V18.2929L75.6584 18.2997Z" fill="black"/>
<path d="M100.115 23.1472C98.5554 23.1472 97.1504 22.9034 95.9069 22.4092C94.6565 21.915 93.6012 21.1906 92.734 20.2225C91.8668 19.2611 91.2014 18.056 90.7443 16.6207C90.2871 15.1855 90.0586 13.5403 90.0586 11.6785C90.0586 9.03139 90.4888 6.8514 91.3425 5.13178C92.1962 3.41893 93.3995 2.1326 94.9523 1.27956C96.4984 0.42652 98.2865 0 100.31 0C101.869 0 103.268 0.243726 104.504 0.724407C105.741 1.20509 106.79 1.92949 107.664 2.89763C108.531 3.85899 109.197 5.07085 109.654 6.51289C110.111 7.9617 110.339 9.63393 110.339 11.5431C110.339 13.4523 110.097 15.1651 109.62 16.6207C109.143 18.0763 108.45 19.2882 107.55 20.2563C106.649 21.2177 105.567 21.9421 104.31 22.4228C103.052 22.9034 101.654 23.1472 100.115 23.1472ZM100.31 18.6721C101.311 18.6721 102.138 18.4216 102.797 17.9138C103.456 17.4061 103.947 16.6478 104.269 15.6255C104.592 14.6032 104.753 13.3237 104.753 11.7733C104.753 10.1349 104.578 8.78089 104.236 7.70444C103.893 6.62798 103.375 5.81556 102.696 5.26718C102.017 4.7188 101.164 4.44122 100.142 4.44122C99.12 4.44122 98.3403 4.70526 97.668 5.23333C97.0026 5.7614 96.4984 6.55351 96.1623 7.60288C95.8262 8.65903 95.6581 9.97244 95.6581 11.5363C95.6581 12.7279 95.7522 13.7705 95.9405 14.6642C96.1287 15.5646 96.4177 16.3093 96.8076 16.8983C97.1975 17.4941 97.6815 17.9341 98.2596 18.2253C98.8377 18.5164 99.5166 18.6653 100.296 18.6653L100.31 18.6721Z" fill="black"/>
<path d="M112.569 22.6732V0.473877H118.014V22.6732H112.569Z" fill="black"/>
<path d="M64.1035 9.06886H68.0433V4.83H64.1035V0.766357H61.0181V0.827009C60.8876 2.35003 60.5419 3.48219 59.9744 4.2437C59.4135 4.99174 58.4546 5.44999 57.1109 5.63195H57.0195V9.06212H58.9047C59.9353 9.06212 60.8485 9.06212 62.1401 9.0756V9.37885C61.8009 9.41255 60.992 9.52711 60.2223 10.1404C59.2178 10.9491 58.9569 12.0475 58.8981 12.3643V16.4212C58.8981 18.6585 59.3874 20.3096 60.3854 21.3744C61.3703 22.4391 62.8772 22.9715 64.8862 22.9715C65.2711 22.9715 65.7277 22.9445 66.2561 22.8839C66.7714 22.8367 67.365 22.7019 68.0433 22.4998V17.7622C67.7629 17.9172 67.4563 18.0385 67.1301 18.1396C66.804 18.2272 66.4844 18.2744 66.1843 18.2744C65.5972 18.2744 65.108 18.0924 64.7101 17.7285C64.2992 17.3781 64.1035 16.7716 64.1035 15.9157V9.06886Z" fill="black"/>
</svg>
