<svg width="19" height="19" viewBox="0 0 19 19" fill="none" xmlns="http://www.w3.org/2000/svg">
<g clip-path="url(#clip0_504_1373)">
<path d="M18.3658 9.38573C17.6412 7.81426 16.5799 6.42137 15.257 5.30573L17.531 3.03173L16.4698 1.96973L14 4.43723C12.633 3.64652 11.0792 3.23655 9.50003 3.24998C3.87503 3.24998 1.29278 7.94573 0.634275 9.38573C0.545879 9.5787 0.500122 9.78847 0.500122 10.0007C0.500122 10.213 0.545879 10.4227 0.634275 10.6157C1.35888 12.1872 2.42019 13.5801 3.74303 14.6957L1.46978 16.9697L2.53028 18.0302L5.00003 15.5627C6.367 16.3534 7.92089 16.7634 9.50003 16.75C15.125 16.75 17.7073 12.0542 18.3658 10.6142C18.454 10.4215 18.4997 10.212 18.4997 9.99998C18.4997 9.78799 18.454 9.57849 18.3658 9.38573ZM2.00003 10.0082C2.56253 8.77448 4.76978 4.74998 9.50003 4.74998C10.6772 4.7431 11.839 5.01773 12.8885 5.55098L11.5648 6.87473C10.8447 6.39668 9.98146 6.18247 9.12145 6.26846C8.26144 6.35445 7.45767 6.73533 6.84653 7.34648C6.23538 7.95763 5.8545 8.7614 5.76851 9.6214C5.68252 10.4814 5.89673 11.3447 6.37478 12.0647L4.81553 13.624C3.61581 12.647 2.65318 11.4108 2.00003 10.0082ZM11.75 9.99998C11.75 10.5967 11.513 11.169 11.091 11.591C10.6691 12.0129 10.0968 12.25 9.50003 12.25C9.16591 12.2487 8.83642 12.1718 8.53628 12.025L11.525 9.03623C11.6718 9.33638 11.7487 9.66586 11.75 9.99998ZM7.25003 9.99998C7.25003 9.40324 7.48708 8.83094 7.90903 8.40899C8.33099 7.98703 8.90329 7.74998 9.50003 7.74998C9.83414 7.75127 10.1636 7.82819 10.4638 7.97498L7.47503 10.9637C7.32824 10.6636 7.25132 10.3341 7.25003 9.99998ZM9.50003 15.25C8.32283 15.2569 7.16104 14.9822 6.11153 14.449L7.43528 13.1252C8.15533 13.6033 9.0186 13.8175 9.8786 13.7315C10.7386 13.6455 11.5424 13.2646 12.1535 12.6535C12.7647 12.0423 13.1456 11.2386 13.2315 10.3786C13.3175 9.51855 13.1033 8.65528 12.6253 7.93523L14.1838 6.37673C15.3859 7.35459 16.349 8.59377 17 9.99998C16.427 11.2427 14.219 15.25 9.50003 15.25Z" fill="#ADADAD"/>
</g>
<defs>
<clipPath id="clip0_504_1373">
<rect width="18" height="18" fill="white" transform="translate(0.5 0.5)"/>
</clipPath>
</defs>
</svg>
