<svg width="28" height="28" viewBox="0 0 28 28" fill="none" xmlns="http://www.w3.org/2000/svg">
<g clip-path="url(#clip0_313_2561)">
<path d="M20.0004 11.064C20.0005 10.6618 19.9211 10.2635 19.7666 9.89207C19.6121 9.52067 19.3857 9.1835 19.1004 8.9C18.5165 8.34285 17.7404 8.03199 16.9334 8.03199C16.1263 8.03199 15.3503 8.34285 14.7664 8.9L2.90037 20.769C2.35879 21.3497 2.06382 22.118 2.07761 22.912C2.09141 23.7059 2.4129 24.4635 2.97432 25.0251C3.53575 25.5866 4.29327 25.9083 5.08721 25.9223C5.88116 25.9362 6.64953 25.6414 7.23037 25.1L19.1004 13.231C19.3862 12.9472 19.6129 12.6096 19.7673 12.2376C19.9218 11.8656 20.001 11.4668 20.0004 11.064ZM5.81638 23.688C5.61422 23.8807 5.34566 23.9882 5.06638 23.9882C4.78709 23.9882 4.51853 23.8807 4.31638 23.688C4.11779 23.4889 4.00627 23.2192 4.00627 22.938C4.00627 22.6568 4.11779 22.3871 4.31638 22.188L12.0854 14.418L13.5904 15.923L5.81638 23.688ZM17.6884 11.816L15.0004 14.505L13.5004 13L16.1894 10.312C16.2852 10.2025 16.4026 10.1138 16.5341 10.0515C16.6656 9.98921 16.8085 9.95457 16.954 9.94974C17.0994 9.94491 17.2443 9.97 17.3797 10.0235C17.515 10.0769 17.638 10.1576 17.7409 10.2605C17.8438 10.3634 17.9245 10.4863 17.9779 10.6217C18.0314 10.7571 18.0565 10.902 18.0516 11.0474C18.0468 11.1929 18.0122 11.3358 17.9498 11.4673C17.8875 11.5988 17.7989 11.7161 17.6894 11.812L17.6884 11.816ZM6.86337 4.855L8.41337 4.413L8.85537 2.863C8.92658 2.61428 9.07683 2.39551 9.28341 2.23978C9.48999 2.08404 9.74167 1.9998 10.0004 1.9998C10.2591 1.9998 10.5108 2.08404 10.7173 2.23978C10.9239 2.39551 11.0742 2.61428 11.1454 2.863L11.5874 4.413L13.1374 4.855C13.3861 4.9262 13.6049 5.07646 13.7606 5.28304C13.9163 5.48962 14.0006 5.74129 14.0006 6C14.0006 6.2587 13.9163 6.51038 13.7606 6.71696C13.6049 6.92354 13.3861 7.07379 13.1374 7.145L11.5874 7.587L11.1454 9.137C11.0742 9.38571 10.9239 9.60448 10.7173 9.76022C10.5108 9.91595 10.2591 10.0002 10.0004 10.0002C9.74167 10.0002 9.48999 9.91595 9.28341 9.76022C9.07683 9.60448 8.92658 9.38571 8.85537 9.137L8.41337 7.587L6.86337 7.145C6.61466 7.07379 6.39589 6.92354 6.24015 6.71696C6.08442 6.51038 6.00018 6.2587 6.00018 6C6.00018 5.74129 6.08442 5.48962 6.24015 5.28304C6.39589 5.07646 6.61466 4.9262 6.86337 4.855ZM25.1374 19.145L23.5874 19.587L23.1454 21.137C23.0742 21.3857 22.9239 21.6045 22.7173 21.7602C22.5108 21.916 22.2591 22.0002 22.0004 22.0002C21.7417 22.0002 21.49 21.916 21.2834 21.7602C21.0768 21.6045 20.9266 21.3857 20.8554 21.137L20.4134 19.587L18.8634 19.145C18.6147 19.0738 18.3959 18.9235 18.2402 18.717C18.0844 18.5104 18.0002 18.2587 18.0002 18C18.0002 17.7413 18.0844 17.4896 18.2402 17.283C18.3959 17.0765 18.6147 16.9262 18.8634 16.855L20.4134 16.413L20.8554 14.863C20.9266 14.6143 21.0768 14.3955 21.2834 14.2398C21.49 14.084 21.7417 13.9998 22.0004 13.9998C22.2591 13.9998 22.5108 14.084 22.7173 14.2398C22.9239 14.3955 23.0742 14.6143 23.1454 14.863L23.5874 16.413L25.1374 16.855C25.3861 16.9262 25.6049 17.0765 25.7606 17.283C25.9163 17.4896 26.0006 17.7413 26.0006 18C26.0006 18.2587 25.9163 18.5104 25.7606 18.717C25.6049 18.9235 25.3861 19.0738 25.1374 19.145ZM19.7554 4.5L21.1114 4.113L21.5004 2.755C21.5637 2.53881 21.6953 2.34897 21.8756 2.21391C22.0559 2.07885 22.2751 2.00585 22.5004 2.00585C22.7256 2.00585 22.9448 2.07885 23.1251 2.21391C23.3054 2.34897 23.4371 2.53881 23.5004 2.755L23.8874 4.111L25.2434 4.498C25.4596 4.56131 25.6494 4.69297 25.7845 4.87325C25.9195 5.05354 25.9925 5.27273 25.9925 5.498C25.9925 5.72326 25.9195 5.94246 25.7845 6.12274C25.6494 6.30302 25.4596 6.43469 25.2434 6.498L23.8874 6.885L23.5004 8.244C23.4371 8.46018 23.3054 8.65002 23.1251 8.78508C22.9448 8.92014 22.7256 8.99314 22.5004 8.99314C22.2751 8.99314 22.0559 8.92014 21.8756 8.78508C21.6953 8.65002 21.5637 8.46018 21.5004 8.244L21.1134 6.889L19.7554 6.5C19.5392 6.43669 19.3493 6.30502 19.2143 6.12474C19.0792 5.94446 19.0062 5.72526 19.0062 5.5C19.0062 5.27473 19.0792 5.05554 19.2143 4.87525C19.3493 4.69497 19.5392 4.56331 19.7554 4.5Z" fill="black"/>
</g>
<defs>
<clipPath id="clip0_313_2561">
<rect width="24" height="24" fill="white" transform="translate(2 2)"/>
</clipPath>
</defs>
</svg>
