<svg width="18" height="18" viewBox="0 0 18 18" fill="none" xmlns="http://www.w3.org/2000/svg">
<path d="M16.5501 10.0442C16.0353 10.711 15.1704 11.142 14.3467 11.142H11.9859L13.392 14.0909C13.8128 14.9733 13.4561 15.9868 12.5045 16.6128C11.6106 17.2008 10.6093 17.1805 10.0696 16.5636L5.11482 10.9005C4.83742 11.2521 4.40797 11.4785 3.92643 11.4785H1.7635C0.928971 11.4785 0.25 10.7995 0.25 9.96494V2.00944C0.25 1.17491 0.928971 0.495937 1.7635 0.495937H3.92643C4.35212 0.495937 4.73705 0.672867 5.01233 0.956739C5.68006 0.533104 6.70276 0.494059 7.55278 0.494059C7.65141 0.494059 7.74788 0.494581 7.84101 0.495102C7.92268 0.495556 8.00123 0.495972 8.07584 0.495972H13.0238C14.26 0.495972 15.1874 1.43821 15.6349 3.14911L16.9579 8.20703C17.1228 8.83756 16.978 9.49001 16.5501 10.0442ZM4.3263 2.00947C4.3263 1.78897 4.14693 1.60961 3.92643 1.60961H1.7635C1.543 1.60961 1.36364 1.78897 1.36364 2.00947V9.96498C1.36364 10.1855 1.543 10.3649 1.7635 10.3649H3.92643C4.14693 10.3649 4.3263 10.1855 4.3263 9.96498V2.00947ZM15.8805 8.48882L14.5575 3.43089C14.3402 2.60001 13.8977 1.60961 13.0238 1.60961H8.07584C7.99932 1.60961 7.91872 1.60916 7.83495 1.6087C7.15525 1.60512 5.89054 1.59812 5.52328 1.96336C5.47999 2.00641 5.4399 2.063 5.4399 2.18438V9.58084L10.9078 15.8303C11.0582 16.0023 11.5092 15.9346 11.8926 15.6824C12.0228 15.5967 12.6587 15.1404 12.3868 14.5702L10.601 10.8248C10.5605 10.7399 10.5422 10.6462 10.5478 10.5523C10.5533 10.4585 10.5826 10.3676 10.6327 10.288C10.6829 10.2085 10.7524 10.143 10.8347 10.0976C10.9171 10.0522 11.0096 10.0284 11.1036 10.0284H14.3467C14.8304 10.0284 15.3616 9.76125 15.6686 9.36365C15.8188 9.16915 15.9774 8.85952 15.8805 8.48882Z" fill="black"/>
</svg>
