<svg width="16" height="15" viewBox="0 0 16 15" fill="none" xmlns="http://www.w3.org/2000/svg">
<path d="M15.5 12.7671V10.2671C15.5 10.1013 15.4342 9.94236 15.3169 9.82515C15.1997 9.70794 15.0408 9.64209 14.875 9.64209C14.7092 9.64209 14.5503 9.70794 14.4331 9.82515C14.3158 9.94236 14.25 10.1013 14.25 10.2671V12.7671C14.25 12.9328 14.1842 13.0918 14.0669 13.209C13.9497 13.3262 13.7908 13.3921 13.625 13.3921H2.375C2.20924 13.3921 2.05027 13.3262 1.93306 13.209C1.81585 13.0918 1.75 12.9328 1.75 12.7671V10.2671C1.75 10.1013 1.68415 9.94236 1.56694 9.82515C1.44973 9.70794 1.29076 9.64209 1.125 9.64209C0.95924 9.64209 0.800269 9.70794 0.683058 9.82515C0.565848 9.94236 0.5 10.1013 0.5 10.2671V12.7671C0.5 13.2644 0.697544 13.7413 1.04917 14.0929C1.40081 14.4445 1.87772 14.6421 2.375 14.6421H13.625C14.1223 14.6421 14.5992 14.4445 14.9508 14.0929C15.3025 13.7413 15.5 13.2644 15.5 12.7671ZM11.5125 9.50459L8.3875 12.0046C8.27716 12.0918 8.14063 12.1392 8 12.1392C7.85937 12.1392 7.72284 12.0918 7.6125 12.0046L4.4875 9.50459C4.37364 9.39711 4.30426 9.2508 4.2931 9.09462C4.28195 8.93844 4.32982 8.78376 4.42725 8.66119C4.52468 8.53861 4.66457 8.45707 4.81924 8.43271C4.97392 8.40834 5.1321 8.44291 5.2625 8.52959L7.375 10.2171V1.51709C7.375 1.35133 7.44085 1.19236 7.55806 1.07515C7.67527 0.957938 7.83424 0.89209 8 0.89209C8.16576 0.89209 8.32473 0.957938 8.44194 1.07515C8.55915 1.19236 8.625 1.35133 8.625 1.51709V10.2171L10.7375 8.52959C10.8004 8.47018 10.875 8.42449 10.9565 8.39542C11.0381 8.36634 11.1247 8.35451 11.211 8.36068C11.2974 8.36685 11.3815 8.39087 11.458 8.43124C11.5346 8.47161 11.6019 8.52744 11.6558 8.59519C11.7096 8.66294 11.7488 8.74114 11.7709 8.82482C11.7929 8.90851 11.7974 8.99587 11.7839 9.08136C11.7704 9.16685 11.7394 9.24862 11.6926 9.32147C11.6459 9.39432 11.5846 9.45668 11.5125 9.50459Z" fill="black"/>
</svg>
