<svg width="24" height="25" viewBox="0 0 24 25" fill="none" xmlns="http://www.w3.org/2000/svg">
<path d="M22.56 13.25C22.56 12.47 22.49 11.72 22.36 11H12V15.26H17.92C17.66 16.63 16.88 17.79 15.71 18.57V21.34H19.28C21.36 19.42 22.56 16.6 22.56 13.25Z" fill="#4285F4"/>
<path d="M12 24C14.97 24 17.46 23.02 19.28 21.34L15.71 18.57C14.73 19.23 13.48 19.63 12 19.63C9.13999 19.63 6.70999 17.7 5.83999 15.1H2.17999V17.94C3.98999 21.53 7.69999 24 12 24Z" fill="#34A853"/>
<path d="M5.84 15.0899C5.62 14.4299 5.49 13.7299 5.49 12.9999C5.49 12.2699 5.62 11.5699 5.84 10.9099V8.06995H2.18C1.43 9.54995 1 11.2199 1 12.9999C1 14.7799 1.43 16.4499 2.18 17.9299L5.03 15.7099L5.84 15.0899Z" fill="#FBBC05"/>
<path d="M12 6.38C13.62 6.38 15.06 6.94 16.21 8.02L19.36 4.87C17.45 3.09 14.97 2 12 2C7.69999 2 3.98999 4.47 2.17999 8.07L5.83999 10.91C6.70999 8.31 9.13999 6.38 12 6.38Z" fill="#EA4335"/>
</svg>
