<svg width="24" height="25" viewBox="0 0 24 25" fill="none" xmlns="http://www.w3.org/2000/svg">
<g clip-path="url(#clip0_429_2205)">
<path fill-rule="evenodd" clip-rule="evenodd" d="M2.66667 25H21.3333C22.8061 25 24 23.8061 24 22.3333V3.66667C24 2.19391 22.8061 1 21.3333 1H2.66667C1.19391 1 0 2.19391 0 3.66667V22.3333C0 23.8061 1.19391 25 2.66667 25Z" fill="#007EBB"/>
<path fill-rule="evenodd" clip-rule="evenodd" d="M20.6666 21.6667H17.1052V15.6007C17.1052 13.9376 16.4732 13.0082 15.1569 13.0082C13.7248 13.0082 12.9767 13.9754 12.9767 15.6007V21.6667H9.54442V10.1112H12.9767V11.6677C12.9767 11.6677 14.0087 9.75811 16.4608 9.75811C18.9119 9.75811 20.6666 11.2549 20.6666 14.3504V21.6667ZM5.44976 8.59805C4.28067 8.59805 3.33331 7.64326 3.33331 6.46571C3.33331 5.28816 4.28067 4.33337 5.44976 4.33337C6.61886 4.33337 7.56565 5.28816 7.56565 6.46571C7.56565 7.64326 6.61886 8.59805 5.44976 8.59805ZM3.6775 21.6667H7.25645V10.1112H3.6775V21.6667Z" fill="white"/>
</g>
<defs>
<clipPath id="clip0_429_2205">
<rect width="24" height="24" fill="white" transform="translate(0 0.5)"/>
</clipPath>
</defs>
</svg>
