<svg width="19" height="19" viewBox="0 0 19 19" fill="none" xmlns="http://www.w3.org/2000/svg">
<g clip-path="url(#clip0_504_1365)">
<path d="M18.3658 9.38575C17.7073 7.94575 15.125 3.25 9.50003 3.25C3.87503 3.25 1.29278 7.94575 0.634275 9.38575C0.545879 9.57873 0.500122 9.78849 0.500122 10.0008C0.500122 10.213 0.545879 10.4228 0.634275 10.6158C1.29278 12.0542 3.87503 16.75 9.50003 16.75C15.125 16.75 17.7073 12.0542 18.3658 10.6143C18.454 10.4215 18.4997 10.212 18.4997 10C18.4997 9.78801 18.454 9.57851 18.3658 9.38575ZM9.50003 15.25C4.76978 15.25 2.56253 11.2255 2.00003 10.0082C2.56253 8.7745 4.76978 4.75 9.50003 4.75C14.219 4.75 16.427 8.75725 17 10C16.427 11.2428 14.219 15.25 9.50003 15.25Z" fill="#ADADAD"/>
<path d="M9.5 6.25C8.75832 6.25 8.0333 6.46993 7.41661 6.88199C6.79993 7.29404 6.31928 7.87971 6.03545 8.56494C5.75162 9.25016 5.67736 10.0042 5.82206 10.7316C5.96675 11.459 6.3239 12.1272 6.84835 12.6517C7.3728 13.1761 8.04098 13.5333 8.76841 13.6779C9.49584 13.8226 10.2498 13.7484 10.9351 13.4645C11.6203 13.1807 12.206 12.7001 12.618 12.0834C13.0301 11.4667 13.25 10.7417 13.25 10C13.2488 9.0058 12.8533 8.05267 12.1503 7.34967C11.4473 6.64666 10.4942 6.25119 9.5 6.25ZM9.5 12.25C9.05499 12.25 8.61998 12.118 8.24997 11.8708C7.87996 11.6236 7.59157 11.2722 7.42127 10.861C7.25098 10.4499 7.20642 9.9975 7.29323 9.56105C7.38005 9.12459 7.59434 8.72368 7.90901 8.40901C8.22368 8.09434 8.62459 7.88005 9.06105 7.79323C9.49751 7.70642 9.94991 7.75097 10.361 7.92127C10.7722 8.09157 11.1236 8.37996 11.3708 8.74997C11.618 9.11998 11.75 9.55499 11.75 10C11.75 10.5967 11.5129 11.169 11.091 11.591C10.669 12.0129 10.0967 12.25 9.5 12.25Z" fill="#ADADAD"/>
</g>
<defs>
<clipPath id="clip0_504_1365">
<rect width="18" height="18" fill="white" transform="translate(0.5 0.5)"/>
</clipPath>
</defs>
</svg>
