<svg width="19" height="19" viewBox="0 0 19 19" fill="none" xmlns="http://www.w3.org/2000/svg">
<path d="M3.45416 12.9957C3.34405 12.9957 3.23642 12.963 3.14487 12.9018C3.05332 12.8406 2.98197 12.7537 2.93984 12.652C2.89771 12.5502 2.88668 12.4383 2.90815 12.3303C2.92963 12.2223 2.98264 12.1231 3.06049 12.0452L11.7619 3.34382C11.8133 3.29064 11.8747 3.24822 11.9426 3.21903C12.0106 3.18985 12.0836 3.17449 12.1576 3.17385C12.2315 3.17321 12.3048 3.1873 12.3733 3.21529C12.4417 3.24329 12.5039 3.28464 12.5561 3.33692C12.6084 3.3892 12.6498 3.45137 12.6778 3.5198C12.7058 3.58823 12.7198 3.66155 12.7192 3.73548C12.7186 3.80942 12.7032 3.88248 12.674 3.95042C12.6448 4.01835 12.6024 4.07979 12.5492 4.13116L3.84783 12.8326C3.73925 12.9411 3.59671 12.9957 3.45416 12.9957Z" fill="black"/>
<path d="M2.59437 17.0056C2.51129 17.0057 2.42924 16.9871 2.35424 16.9514C2.27925 16.9156 2.21321 16.8635 2.16096 16.7989C2.10872 16.7343 2.0716 16.6588 2.05231 16.578C2.03303 16.4972 2.03208 16.4131 2.04953 16.3319L2.90981 12.3219C2.92495 12.2502 2.9541 12.1823 2.99557 12.1219C3.03704 12.0614 3.09002 12.0098 3.15149 11.9699C3.21295 11.93 3.28168 11.9027 3.35373 11.8894C3.42579 11.8761 3.49976 11.8772 3.5714 11.8926C3.64304 11.908 3.71094 11.9373 3.77121 11.979C3.83149 12.0206 3.88295 12.0738 3.92264 12.1354C3.96233 12.197 3.98948 12.2658 4.00253 12.3379C4.01557 12.41 4.01426 12.4839 3.99867 12.5555L3.13838 16.5654C3.11171 16.69 3.04316 16.8016 2.94416 16.8817C2.84517 16.9618 2.72171 17.0055 2.59437 17.0056ZM6.60375 16.1453C6.49363 16.1453 6.386 16.1126 6.29446 16.0514C6.20291 15.9903 6.13156 15.9033 6.08942 15.8016C6.04729 15.6998 6.03626 15.5879 6.05774 15.4799C6.07921 15.3719 6.13223 15.2727 6.21007 15.1948L14.9115 6.49372C14.9628 6.44054 15.0243 6.39812 15.0922 6.36894C15.1602 6.33975 15.2332 6.32439 15.3072 6.32375C15.3811 6.32311 15.4544 6.3372 15.5228 6.36519C15.5913 6.39319 15.6534 6.43454 15.7057 6.48682C15.758 6.5391 15.7993 6.60127 15.8273 6.6697C15.8553 6.73813 15.8694 6.81145 15.8688 6.88539C15.8681 6.95932 15.8528 7.03239 15.8236 7.10032C15.7944 7.16825 15.752 7.2297 15.6988 7.28106L6.99769 15.9822C6.94602 16.034 6.88462 16.0751 6.81701 16.1031C6.7494 16.1311 6.67692 16.1454 6.60375 16.1453Z" fill="black"/>
<path d="M2.59379 17.0056C2.45659 17.005 2.32442 16.9539 2.22263 16.8619C2.12083 16.7699 2.05657 16.6435 2.04215 16.5071C2.02773 16.3706 2.06417 16.2337 2.14449 16.1224C2.22482 16.0112 2.34336 15.9335 2.47742 15.9042L6.48735 15.044C6.63154 15.0135 6.78193 15.0414 6.90555 15.1217C7.02917 15.2019 7.11595 15.3279 7.14686 15.472C7.17777 15.6161 7.1503 15.7665 7.07046 15.8904C6.99062 16.0143 6.86493 16.1015 6.72093 16.1328L2.711 16.9931C2.6725 17.0015 2.6332 17.0057 2.59379 17.0056ZM13.7307 9.01891C13.6576 9.01905 13.5851 9.0047 13.5176 8.9767C13.45 8.9487 13.3887 8.90759 13.3371 8.85576L10.1874 5.70612C10.1342 5.65475 10.0918 5.59331 10.0626 5.52538C10.0334 5.45744 10.0181 5.38438 10.0174 5.31044C10.0168 5.23651 10.0309 5.16319 10.0589 5.09476C10.0869 5.02633 10.1282 4.96416 10.1805 4.91188C10.2328 4.85959 10.295 4.81825 10.3634 4.79025C10.4318 4.76225 10.5051 4.74817 10.5791 4.74881C10.653 4.74945 10.7261 4.76481 10.794 4.79399C10.8619 4.82318 10.9234 4.8656 10.9748 4.91878L14.1244 8.06842C14.2022 8.14629 14.2553 8.2455 14.2767 8.35349C14.2982 8.46149 14.2872 8.57343 14.245 8.67516C14.2029 8.77689 14.1316 8.86384 14.04 8.92503C13.9485 8.98622 13.8408 9.01889 13.7307 9.01891ZM15.3057 7.44423C15.1955 7.44431 15.0878 7.4117 14.9961 7.35053C14.9045 7.28935 14.833 7.20235 14.7908 7.10055C14.7487 6.99875 14.7376 6.88673 14.7592 6.77866C14.7807 6.67059 14.8338 6.57133 14.9117 6.49346C15.2216 6.18359 15.3923 5.76403 15.3923 5.31245C15.3923 4.86087 15.2216 4.44131 14.9117 4.13144C14.6016 3.82129 14.182 3.65062 13.7304 3.65062C13.2789 3.65062 12.8593 3.82129 12.5494 4.13144C12.4977 4.18315 12.4363 4.22418 12.3688 4.25216C12.3012 4.28015 12.2288 4.29456 12.1556 4.29456C12.0825 4.29456 12.0101 4.28015 11.9425 4.25216C11.8749 4.22418 11.8135 4.18315 11.7618 4.13144C11.7101 4.07972 11.6691 4.01833 11.6411 3.95076C11.6131 3.88319 11.5987 3.81076 11.5987 3.73763C11.5987 3.66449 11.6131 3.59207 11.6411 3.5245C11.6691 3.45693 11.7101 3.39553 11.7618 3.34382C12.2819 2.82347 12.981 2.53699 13.7304 2.53699C14.4796 2.53699 15.179 2.82347 15.6991 3.34382C16.2194 3.86389 16.5059 4.56297 16.5059 5.31245C16.5059 6.06193 16.2194 6.76101 15.6991 7.28108C15.6475 7.33288 15.5862 7.37396 15.5187 7.40196C15.4512 7.42996 15.3788 7.44433 15.3057 7.44423Z" fill="black"/>
</svg>
