<svg width="28" height="28" viewBox="0 0 28 28" fill="none" xmlns="http://www.w3.org/2000/svg">
<path d="M23 6H19.9C19.6679 4.87141 19.0538 3.85735 18.1613 3.12872C17.2687 2.40009 16.1522 2.00145 15 2L13 2C11.8478 2.00145 10.7313 2.40009 9.83875 3.12872C8.94618 3.85735 8.3321 4.87141 8.1 6H5C4.73478 6 4.48043 6.10536 4.29289 6.29289C4.10536 6.48043 4 6.73478 4 7C4 7.26522 4.10536 7.51957 4.29289 7.70711C4.48043 7.89464 4.73478 8 5 8H6V21C6.00159 22.3256 6.52888 23.5964 7.46622 24.5338C8.40356 25.4711 9.67441 25.9984 11 26H17C18.3256 25.9984 19.5964 25.4711 20.5338 24.5338C21.4711 23.5964 21.9984 22.3256 22 21V8H23C23.2652 8 23.5196 7.89464 23.7071 7.70711C23.8946 7.51957 24 7.26522 24 7C24 6.73478 23.8946 6.48043 23.7071 6.29289C23.5196 6.10536 23.2652 6 23 6ZM13 4H15C15.6203 4.00076 16.2251 4.19338 16.7316 4.55144C17.2381 4.90951 17.6214 5.41549 17.829 6H10.171C10.3786 5.41549 10.7619 4.90951 11.2684 4.55144C11.7749 4.19338 12.3797 4.00076 13 4ZM20 21C20 21.7956 19.6839 22.5587 19.1213 23.1213C18.5587 23.6839 17.7956 24 17 24H11C10.2044 24 9.44129 23.6839 8.87868 23.1213C8.31607 22.5587 8 21.7956 8 21V8H20V21Z" fill="white"/>
<path d="M12 20C12.2652 20 12.5196 19.8946 12.7071 19.7071C12.8946 19.5196 13 19.2652 13 19V13C13 12.7348 12.8946 12.4804 12.7071 12.2929C12.5196 12.1054 12.2652 12 12 12C11.7348 12 11.4804 12.1054 11.2929 12.2929C11.1054 12.4804 11 12.7348 11 13V19C11 19.2652 11.1054 19.5196 11.2929 19.7071C11.4804 19.8946 11.7348 20 12 20Z" fill="white"/>
<path d="M16 20C16.2652 20 16.5196 19.8946 16.7071 19.7071C16.8946 19.5196 17 19.2652 17 19V13C17 12.7348 16.8946 12.4804 16.7071 12.2929C16.5196 12.1054 16.2652 12 16 12C15.7348 12 15.4804 12.1054 15.2929 12.2929C15.1054 12.4804 15 12.7348 15 13V19C15 19.2652 15.1054 19.5196 15.2929 19.7071C15.4804 19.8946 15.7348 20 16 20Z" fill="white"/>
</svg>
