<svg width="28" height="28" viewBox="0 0 28 28" fill="none" xmlns="http://www.w3.org/2000/svg">
<g clip-path="url(#clip0_774_5382)">
<g clip-path="url(#clip1_774_5382)">
<path d="M3 7.75001H5.736C5.95064 8.53975 6.41917 9.23691 7.06933 9.73395C7.71948 10.231 8.51512 10.5003 9.3335 10.5003C10.1519 10.5003 10.9475 10.231 11.5977 9.73395C12.2478 9.23691 12.7164 8.53975 12.931 7.75001H25C25.2652 7.75001 25.5196 7.64466 25.7071 7.45712C25.8946 7.26959 26 7.01523 26 6.75001C26 6.4848 25.8946 6.23044 25.7071 6.04291C25.5196 5.85537 25.2652 5.75001 25 5.75001H12.931C12.7164 4.96028 12.2478 4.26312 11.5977 3.76608C10.9475 3.26905 10.1519 2.99976 9.3335 2.99976C8.51512 2.99976 7.71948 3.26905 7.06933 3.76608C6.41917 4.26312 5.95064 4.96028 5.736 5.75001H3C2.73478 5.75001 2.48043 5.85537 2.29289 6.04291C2.10536 6.23044 2 6.4848 2 6.75001C2 7.01523 2.10536 7.26959 2.29289 7.45712C2.48043 7.64466 2.73478 7.75001 3 7.75001ZM9.333 5.00001C9.67912 5.00001 10.0175 5.10265 10.3052 5.29494C10.593 5.48724 10.8173 5.76055 10.9498 6.08032C11.0822 6.40009 11.1169 6.75196 11.0494 7.09142C10.9819 7.43089 10.8152 7.74271 10.5704 7.98745C10.3257 8.23219 10.0139 8.39887 9.67441 8.46639C9.33494 8.53391 8.98307 8.49926 8.6633 8.3668C8.34353 8.23435 8.07022 8.01005 7.87793 7.72226C7.68564 7.43448 7.583 7.09613 7.583 6.75001C7.58353 6.28605 7.76807 5.84124 8.09615 5.51316C8.42422 5.18509 8.86903 5.00054 9.333 5.00001Z" fill="#333333"/>
<path d="M25 14H22.264C22.0497 13.2101 21.5814 12.5127 20.9313 12.0154C20.2812 11.5182 19.4855 11.2488 18.667 11.2488C17.8485 11.2488 17.0528 11.5182 16.4027 12.0154C15.7526 12.5127 15.2843 13.2101 15.07 14H3C2.73478 14 2.48043 14.1054 2.29289 14.2929C2.10536 14.4804 2 14.7348 2 15C2 15.2652 2.10536 15.5196 2.29289 15.7071C2.48043 15.8947 2.73478 16 3 16H15.07C15.2843 16.7899 15.7526 17.4873 16.4027 17.9846C17.0528 18.4818 17.8485 18.7512 18.667 18.7512C19.4855 18.7512 20.2812 18.4818 20.9313 17.9846C21.5814 17.4873 22.0497 16.7899 22.264 16H25C25.2652 16 25.5196 15.8947 25.7071 15.7071C25.8946 15.5196 26 15.2652 26 15C26 14.7348 25.8946 14.4804 25.7071 14.2929C25.5196 14.1054 25.2652 14 25 14ZM18.667 16.75C18.3209 16.75 17.9825 16.6474 17.6948 16.4551C17.407 16.2628 17.1827 15.9895 17.0502 15.6697C16.9178 15.3499 16.8831 14.9981 16.9506 14.6586C17.0181 14.3191 17.1848 14.0073 17.4296 13.7626C17.6743 13.5178 17.9861 13.3512 18.3256 13.2836C18.6651 13.2161 19.0169 13.2508 19.3367 13.3832C19.6565 13.5157 19.9298 13.74 20.1221 14.0278C20.3144 14.3156 20.417 14.6539 20.417 15C20.4165 15.464 20.2319 15.9088 19.9039 16.2369C19.5758 16.5649 19.131 16.7495 18.667 16.75Z" fill="#333333"/>
<path d="M25 22.25H12.931C12.7164 21.4603 12.2478 20.7631 11.5977 20.2661C10.9475 19.769 10.1519 19.4998 9.3335 19.4998C8.51512 19.4998 7.71948 19.769 7.06933 20.2661C6.41917 20.7631 5.95064 21.4603 5.736 22.25H3C2.73478 22.25 2.48043 22.3554 2.29289 22.5429C2.10536 22.7304 2 22.9848 2 23.25C2 23.5152 2.10536 23.7696 2.29289 23.9571C2.48043 24.1447 2.73478 24.25 3 24.25H5.736C5.95064 25.0397 6.41917 25.7369 7.06933 26.2339C7.71948 26.731 8.51512 27.0003 9.3335 27.0003C10.1519 27.0003 10.9475 26.731 11.5977 26.2339C12.2478 25.7369 12.7164 25.0397 12.931 24.25H25C25.2652 24.25 25.5196 24.1447 25.7071 23.9571C25.8946 23.7696 26 23.5152 26 23.25C26 22.9848 25.8946 22.7304 25.7071 22.5429C25.5196 22.3554 25.2652 22.25 25 22.25ZM9.333 25C8.98688 25 8.64854 24.8974 8.36075 24.7051C8.07297 24.5128 7.84866 24.2395 7.71621 23.9197C7.58376 23.5999 7.5491 23.2481 7.61663 22.9086C7.68415 22.5691 7.85082 22.2573 8.09556 22.0126C8.3403 21.7678 8.65213 21.6012 8.99159 21.5336C9.33106 21.4661 9.68293 21.5008 10.0027 21.6332C10.3225 21.7657 10.5958 21.99 10.7881 22.2778C10.9804 22.5656 11.083 22.9039 11.083 23.25C11.0822 23.7139 10.8976 24.1586 10.5696 24.4866C10.2415 24.8146 9.79689 24.9992 9.333 25Z" fill="#333333"/>
</g>
</g>
<defs>
<clipPath id="clip0_774_5382">
<rect width="28" height="28" fill="white"/>
</clipPath>
<clipPath id="clip1_774_5382">
<rect width="24" height="24" fill="white" transform="translate(2 3)"/>
</clipPath>
</defs>
</svg>
