<svg width="17" height="18" viewBox="0 0 17 18" fill="none" xmlns="http://www.w3.org/2000/svg">
<path d="M14.6636 13.5977L14.4619 13.4274C15.6275 11.9643 16.2616 10.1538 16.2616 8.25041C16.2616 7.97142 16.2476 7.69693 16.221 7.42469C16.1796 7.01221 15.8241 6.72272 15.4109 6.75347C15.0051 6.79547 14.7087 7.16295 14.7494 7.57543C14.7716 7.79743 14.7826 8.02242 14.7826 8.24966C14.7826 9.92359 14.1832 11.5098 13.0886 12.7495H3.17256C2.07867 11.5105 1.4785 9.92434 1.4785 8.24966C1.4785 4.52756 4.46233 1.49994 8.13057 1.49994C8.81204 1.49994 9.4839 1.60418 10.1262 1.80892C10.5164 1.93267 10.9304 1.71218 11.0531 1.31845C11.175 0.923962 10.9592 0.502479 10.5697 0.377984C9.78398 0.127495 8.96282 0 8.13057 0C3.64782 0 0.000264782 3.7011 0.000264782 8.24966C0.000264782 10.1531 0.63369 11.9635 1.80002 13.4267L1.5975 13.5977C0.828078 14.2487 0.275217 15.1524 0.0416554 16.1423C-0.0655168 16.5946 0.0364816 17.0633 0.320303 17.4285C0.603386 17.7915 1.02616 18 1.48146 18H14.7797C15.235 18 15.6578 17.7923 15.9408 17.4285C16.2247 17.0633 16.3259 16.5946 16.2195 16.1416C15.9859 15.1531 15.4331 14.2494 14.6636 13.5977ZM1.47924 16.4911C1.63963 15.8138 2.01806 15.1951 2.54357 14.7504L3.13709 14.2494H13.1241L13.7168 14.7504C14.2438 15.1959 14.6223 15.8138 14.7797 16.4993L1.47924 16.4911ZM10.2178 6.88171L11.2659 7.1472C11.5948 7.23045 11.8262 7.53044 11.8262 7.87467C11.8262 8.21891 11.5948 8.51815 11.2659 8.60214L10.2178 8.86763L9.9562 9.93109C9.87416 10.2648 9.57851 10.4996 9.23925 10.4996C8.9 10.4996 8.60509 10.2656 8.52231 9.93109L8.25844 8.85863L7.19928 8.56989C6.87185 8.48065 6.64642 8.17691 6.65234 7.83267C6.65899 7.48844 6.89477 7.1922 7.22441 7.11495L8.26214 6.87196L8.52231 5.81826C8.60361 5.48452 8.9 5.24978 9.23925 5.24978C9.57851 5.24978 9.87342 5.48377 9.9562 5.81826L10.2178 6.88171ZM16.5351 2.30315L15.2461 1.77968L14.7302 0.47173C14.6178 0.186742 14.3458 0 14.0435 0C13.7412 0 13.47 0.186742 13.3569 0.47173L12.8439 1.77218L11.5645 2.26341C11.2822 2.3729 11.093 2.64439 11.087 2.95113C11.0811 3.25786 11.26 3.53685 11.5387 3.6561L12.838 4.21107L13.3569 5.52727C13.4692 5.81226 13.7412 5.999 14.0435 5.999C14.3458 5.999 14.6171 5.81226 14.7302 5.52727L15.2461 4.21932L16.5351 3.69585C16.816 3.58185 17 3.30586 17 2.99913C17 2.69239 16.816 2.41715 16.5351 2.3024V2.30315Z" fill="#333333"/>
</svg>
