<svg width="24" height="24" viewBox="0 0 24 24" fill="none" xmlns="http://www.w3.org/2000/svg">
<g clip-path="url(#clip0_384_405)">
<g clip-path="url(#clip1_384_405)">
<path d="M20.8394 18.131L20.5664 17.904C22.1434 15.953 23.0014 13.539 23.0014 11.001C23.0014 10.629 22.9824 10.263 22.9464 9.9C22.8904 9.35 22.4094 8.964 21.8504 9.005C21.3014 9.061 20.9004 9.551 20.9554 10.101C20.9854 10.397 21.0004 10.697 21.0004 11C21.0004 13.232 20.1894 15.347 18.7084 17H5.29236C3.81236 15.348 3.00036 13.233 3.00036 11C3.00036 6.037 7.03736 2 12.0004 2C12.9224 2 13.8314 2.139 14.7004 2.412C15.2284 2.577 15.7884 2.283 15.9544 1.758C16.1194 1.232 15.8274 0.67 15.3004 0.504C14.2374 0.17 13.1264 0 12.0004 0C5.93536 0 1.00036 4.935 1.00036 11C1.00036 13.538 1.85736 15.952 3.43536 17.903L3.16136 18.131C2.12036 18.999 1.37236 20.204 1.05636 21.524C0.911358 22.127 1.04936 22.752 1.43336 23.239C1.81636 23.723 2.38836 24.001 3.00436 24.001H20.9964C21.6124 24.001 22.1844 23.724 22.5674 23.239C22.9514 22.752 23.0884 22.127 22.9444 21.523C22.6284 20.205 21.8804 19 20.8394 18.131ZM3.00136 21.989C3.21836 21.086 3.73036 20.261 4.44136 19.668L5.24436 19H18.7564L19.5584 19.668C20.2714 20.262 20.7834 21.086 20.9964 22L3.00136 21.989ZM14.8244 9.176L16.2424 9.53C16.6874 9.641 17.0004 10.041 17.0004 10.5C17.0004 10.959 16.6874 11.358 16.2424 11.47L14.8244 11.824L14.4704 13.242C14.3594 13.687 13.9594 14 13.5004 14C13.0414 14 12.6424 13.688 12.5304 13.242L12.1734 11.812L10.7404 11.427C10.2974 11.308 9.99236 10.903 10.0004 10.444C10.0094 9.985 10.3284 9.59 10.7744 9.487L12.1784 9.163L12.5304 7.758C12.6404 7.313 13.0414 7 13.5004 7C13.9594 7 14.3584 7.312 14.4704 7.758L14.8244 9.176ZM23.3714 3.071L21.6274 2.373L20.9294 0.629C20.7774 0.249 20.4094 0 20.0004 0C19.5914 0 19.2244 0.249 19.0714 0.629L18.3774 2.363L16.6464 3.018C16.2644 3.164 16.0084 3.526 16.0004 3.935C15.9924 4.344 16.2344 4.716 16.6114 4.875L18.3694 5.615L19.0714 7.37C19.2234 7.75 19.5914 7.999 20.0004 7.999C20.4094 7.999 20.7764 7.75 20.9294 7.37L21.6274 5.626L23.3714 4.928C23.7514 4.776 24.0004 4.408 24.0004 3.999C24.0004 3.59 23.7514 3.223 23.3714 3.07V3.071Z" fill="white"/>
</g>
</g>
<defs>
<clipPath id="clip0_384_405">
<rect width="24" height="24" fill="white"/>
</clipPath>
<clipPath id="clip1_384_405">
<rect width="24" height="24" fill="white"/>
</clipPath>
</defs>
</svg>
