<svg width="24" height="24" viewBox="0 0 24 24" fill="none" xmlns="http://www.w3.org/2000/svg">
<path d="M12 2C17.5228 2 22 6.47677 22 11.9991C22 17.5215 17.5228 21.9983 12 21.9983C10.3817 21.9983 8.81782 21.6129 7.41286 20.8864L3.58704 21.9536C2.92212 22.1393 2.23258 21.7508 2.04691 21.086C1.98546 20.8659 1.98549 20.6333 2.04695 20.4135L3.11461 16.591C2.38637 15.1848 2 13.6193 2 11.9991C2 6.47677 6.47715 2 12 2ZM12 3.49987C7.30558 3.49987 3.5 7.30512 3.5 11.9991C3.5 13.4686 3.87277 14.8823 4.57303 16.1362L4.72368 16.406L3.61096 20.3898L7.59755 19.2777L7.86709 19.428C9.12006 20.1266 10.5322 20.4984 12 20.4984C16.6944 20.4984 20.5 16.6932 20.5 11.9991C20.5 7.30512 16.6944 3.49987 12 3.49987ZM12 15.4988C12.5523 15.4988 13 15.9465 13 16.4988C13 17.051 12.5523 17.4987 12 17.4987C11.4477 17.4987 11 17.051 11 16.4988C11 15.9465 11.4477 15.4988 12 15.4988ZM12 6.74959C13.5188 6.74959 14.75 7.9807 14.75 9.49936C14.75 10.51 14.4525 11.0733 13.6989 11.8577L13.5303 12.0295C12.9084 12.6513 12.75 12.9153 12.75 13.499C12.75 13.9132 12.4142 14.249 12 14.249C11.5858 14.249 11.25 13.9132 11.25 13.499C11.25 12.4883 11.5475 11.9251 12.3011 11.1406L12.4697 10.9689C13.0916 10.3471 13.25 10.083 13.25 9.49936C13.25 8.80906 12.6904 8.24946 12 8.24946C11.3528 8.24946 10.8205 8.7413 10.7565 9.37156L10.75 9.49936C10.75 9.91354 10.4142 10.2493 10 10.2493C9.58579 10.2493 9.25 9.91354 9.25 9.49936C9.25 7.9807 10.4812 6.74959 12 6.74959Z" fill="#27292C"/>
</svg>
