<svg width="18" height="18" viewBox="0 0 18 18" fill="none" xmlns="http://www.w3.org/2000/svg">
<path d="M16.9163 7.49C16.4015 6.82314 15.5366 6.39223 14.7129 6.39223H12.3521L13.7582 3.44328C14.179 2.56087 13.8224 1.54739 12.8707 0.92142C11.9768 0.33342 10.9755 0.353639 10.4358 0.970594L5.48103 6.63368C5.20363 6.28205 4.77419 6.0557 4.29264 6.0557H2.12971C1.29518 6.0557 0.616211 6.73467 0.616211 7.56924V15.5247C0.616211 16.3593 1.29518 17.0382 2.12971 17.0382H4.29264C4.71833 17.0382 5.10327 16.8613 5.37854 16.5774C6.04627 17.0011 7.06897 17.0401 7.91899 17.0401C8.01762 17.0401 8.11409 17.0396 8.20722 17.0391C8.28889 17.0386 8.36744 17.0382 8.44205 17.0382H13.39C14.6263 17.0382 15.5536 16.096 16.0011 14.3851L17.3241 9.32715C17.489 8.69662 17.3442 8.04417 16.9163 7.49ZM4.69251 15.5247C4.69251 15.7452 4.51314 15.9246 4.29264 15.9246H2.12971C1.90921 15.9246 1.72985 15.7452 1.72985 15.5247V7.5692C1.72985 7.3487 1.90921 7.1693 2.12971 7.1693H4.29264C4.51314 7.1693 4.69251 7.3487 4.69251 7.5692V15.5247ZM16.2467 9.04536L14.9237 14.1033C14.7064 14.9342 14.2639 15.9246 13.39 15.9246H8.44205C8.36553 15.9246 8.28493 15.925 8.20116 15.9255C7.52146 15.9291 6.25675 15.9361 5.88949 15.5708C5.8462 15.5278 5.80611 15.4712 5.80611 15.3498V7.95334L11.274 1.70389C11.4244 1.5319 11.8754 1.59962 12.2588 1.85179C12.389 1.93747 13.025 2.39375 12.753 2.96397L10.9672 6.70937C10.9267 6.79425 10.9084 6.88798 10.914 6.98184C10.9196 7.0757 10.9488 7.16662 10.999 7.24613C11.0491 7.32565 11.1186 7.39116 11.201 7.43657C11.2833 7.48198 11.3758 7.50581 11.4698 7.50583H14.7129C15.1966 7.50583 15.7279 7.77293 16.0348 8.17053C16.185 8.36503 16.3436 8.67466 16.2467 9.04536Z" fill="black"/>
</svg>
