<svg width="174" height="47" viewBox="0 0 174 47" fill="none" xmlns="http://www.w3.org/2000/svg">
<path d="M152.649 13.9694L138.965 19.4285C132.616 21.9616 129.522 29.1604 132.054 35.5075C134.586 41.8547 141.786 44.9465 148.135 42.4135L161.819 36.9543C168.168 34.4212 171.262 27.2224 168.73 20.8753C166.198 14.5282 158.998 11.4363 152.649 13.9694Z" fill="#D9F92F"/>
<path d="M145.72 35.9669C145.206 36.1707 144.774 36.2114 144.432 36.0973C144.09 35.9832 143.821 35.6818 143.634 35.2254C143.446 34.7691 143.438 34.3536 143.601 34.0276C143.764 33.7017 144.114 33.4409 144.628 33.2291C145.141 33.0172 145.589 32.9765 145.94 33.0906C146.29 33.2046 146.559 33.5061 146.746 33.9787C147.105 34.8832 146.763 35.5514 145.72 35.9669Z" fill="black"/>
<path d="M147.61 34.9892L146.966 23.6629L150.144 22.3918L157.461 31.0535L154.813 32.1128L149.378 24.9993L149.288 25.0319L150.225 33.9381L147.61 34.981V34.9892ZM148.799 32.4632L148.115 30.7357L154.487 28.1934L155.171 29.9209L148.799 32.4632Z" fill="black"/>
<path d="M158.13 30.7928L154.145 20.8029L156.614 19.817L160.599 29.8069L158.13 30.7928Z" fill="black"/>
<path d="M11.1892 27.8594C9.29882 27.8594 7.6447 27.6394 6.22688 27.2156C4.80906 26.7838 3.62754 26.1645 2.68233 25.3497C1.73712 24.543 1.04451 23.5652 0.596344 22.4162C0.148182 21.2673 -0.0473789 19.988 0.00965978 18.5865L6.08021 17.2502C6.13725 18.4887 6.398 19.4991 6.8706 20.2651C7.34321 21.031 7.98693 21.6014 8.79362 21.9681C9.60031 22.3348 10.5048 22.514 11.507 22.514C12.3137 22.514 13.0308 22.4162 13.6501 22.2125C14.2693 22.0088 14.7664 21.7236 15.1249 21.3651C15.4916 20.9984 15.6709 20.5747 15.6709 20.0858C15.6709 19.4421 15.4264 18.9043 14.9457 18.4887C14.4568 18.0732 13.7886 17.7146 12.9412 17.4131C12.0937 17.1198 11.1241 16.8183 10.0485 16.525C8.8914 16.199 7.73433 15.8405 6.58541 15.4494C5.43649 15.0582 4.39349 14.5693 3.44828 13.9745C2.50307 13.3797 1.73712 12.6137 1.15858 11.6685C0.580047 10.7233 0.286705 9.54994 0.286705 8.14842C0.286705 6.42096 0.726718 4.9461 1.60674 3.73199C2.48677 2.51788 3.70088 1.59711 5.24907 0.961536C6.79727 0.325962 8.57362 0.0081749 10.57 0.0081749C12.6723 0.0081749 14.5545 0.366704 16.2005 1.08376C17.8465 1.80082 19.1176 2.84381 20.0058 4.22089C20.894 5.59797 21.2444 7.28469 21.0569 9.28104L15.0679 10.2507C15.0923 9.44401 15.0108 8.72695 14.8234 8.10767C14.636 7.4884 14.3427 6.95875 13.9516 6.52689C13.5604 6.09502 13.0715 5.76094 12.4767 5.53278C11.8819 5.30463 11.1811 5.19055 10.3744 5.19055C9.56772 5.19055 8.84251 5.29648 8.28842 5.51649C7.73433 5.73649 7.31876 6.02983 7.03357 6.40466C6.74838 6.77949 6.60985 7.21135 6.60985 7.70025C6.60985 8.27064 6.82171 8.74325 7.25358 9.11807C7.68544 9.4929 8.30472 9.82698 9.11956 10.1122C9.92625 10.3974 10.8878 10.6826 11.9959 10.9841C13.153 11.31 14.3264 11.6685 15.4997 12.0596C16.6731 12.4508 17.7568 12.9641 18.7591 13.5997C19.7614 14.2353 20.5599 15.0501 21.171 16.0524C21.7822 17.0546 22.0836 18.3176 22.0836 19.8577C22.0836 21.6421 21.6192 23.1252 20.6903 24.3148C19.7614 25.5045 18.4739 26.3927 16.8442 26.9875C15.2146 27.5823 13.3241 27.8757 11.1974 27.8757L11.1892 27.8594Z" fill="black"/>
<path d="M24.2189 33.278V5.90761H29.9717V12.5078H30.2569C30.5502 10.9189 30.9984 9.59068 31.5932 8.52325C32.188 7.45581 32.954 6.65727 33.8829 6.13577C34.8118 5.60612 35.9444 5.34538 37.2645 5.34538C38.9349 5.34538 40.3609 5.76909 41.5342 6.62467C42.7076 7.4721 43.5958 8.72696 44.2069 10.3892C44.818 12.0515 45.1195 14.0967 45.1195 16.525C45.1195 19.1406 44.7773 21.2918 44.0847 22.9622C43.3921 24.6326 42.455 25.8712 41.2735 26.6697C40.0838 27.4682 38.7393 27.8675 37.2237 27.8675C36.0096 27.8675 34.934 27.6149 34.0051 27.1016C33.0762 26.5882 32.3021 25.7978 31.6991 24.7304C31.088 23.663 30.6643 22.3185 30.428 20.7051H30.0613C30.1998 21.4873 30.3139 22.3022 30.428 23.1578C30.5339 24.0052 30.6235 24.8445 30.6887 25.6675C30.7539 26.4904 30.7865 27.2808 30.7865 28.0386V33.3025H24.2271L24.2189 33.278ZM34.7466 22.4733C35.6103 22.4733 36.3193 22.2044 36.8734 21.6666C37.4274 21.1288 37.8349 20.4199 38.0875 19.5399C38.3401 18.6598 38.4704 17.7391 38.4704 16.7694C38.4704 15.6938 38.3319 14.7079 38.0467 13.836C37.7615 12.956 37.346 12.2552 36.7919 11.7337C36.2378 11.2041 35.5615 10.9433 34.7466 10.9433C34.2333 10.9433 33.7362 11.0574 33.2473 11.2856C32.7584 11.5137 32.3265 11.8641 31.9517 12.3367C31.5769 12.8093 31.2673 13.4123 31.0391 14.1375C30.8109 14.8627 30.6969 15.7427 30.6969 16.7694V17.0139C30.6969 17.8206 30.7784 18.5295 30.9413 19.1161C31.1043 19.711 31.3161 20.2243 31.585 20.6562C31.8539 21.0881 32.1636 21.4384 32.514 21.7073C32.8643 21.9762 33.231 22.1718 33.6058 22.294C33.9807 22.4162 34.3636 22.4733 34.7385 22.4733H34.7466Z" fill="black"/>
<path d="M57.4232 27.8594C55.3698 27.8594 53.5527 27.452 51.9556 26.6209C50.3585 25.7979 49.12 24.5593 48.2318 22.8971C47.3436 21.2348 46.8954 19.1488 46.8954 16.6391C46.8954 14.1294 47.3599 11.8804 48.2888 10.2182C49.2177 8.5559 50.4889 7.33364 52.0941 6.5351C53.6994 5.73656 55.5164 5.33728 57.5372 5.33728C59.558 5.33728 61.4811 5.75285 63.0618 6.57584C64.6426 7.39883 65.8649 8.63738 66.7449 10.2997C67.625 11.9619 68.0568 14.0561 68.0568 16.5984C68.0568 19.1407 67.5924 21.357 66.6634 23.0193C65.7345 24.6816 64.4634 25.9038 62.8581 26.6861C61.2529 27.4683 59.4358 27.8594 57.415 27.8594H57.4232ZM57.5861 23.0356C58.4254 23.0356 59.1262 22.7993 59.6884 22.3267C60.2588 21.8541 60.6825 21.1615 60.984 20.2407C61.2774 19.3199 61.4322 18.228 61.4322 16.9569C61.4322 15.5554 61.2692 14.3738 60.9433 13.4123C60.6173 12.4508 60.1529 11.7175 59.5499 11.2041C58.9388 10.6908 58.2054 10.4382 57.3417 10.4382C56.535 10.4382 55.8424 10.6745 55.2801 11.1471C54.7097 11.6197 54.2779 12.3123 53.9845 13.2331C53.6831 14.1538 53.5364 15.2539 53.5364 16.5495C53.5364 18.6029 53.8949 20.1918 54.612 21.3244C55.329 22.457 56.315 23.0274 57.5861 23.0274V23.0356Z" fill="black"/>
<path d="M85.1518 27.2889V0.570362H95.924C97.57 0.570362 99.0367 0.717033 100.316 1.01852C101.595 1.32001 102.695 1.75188 103.6 2.33856C104.504 2.9171 105.189 3.64231 105.661 4.50603C106.134 5.36976 106.37 6.38016 106.37 7.54538C106.37 8.62912 106.15 9.59878 105.702 10.4625C105.254 11.3262 104.545 12.0188 103.559 12.5485C102.573 13.0781 101.286 13.4041 99.6885 13.5426V13.9093C102.41 14.0478 104.39 14.6752 105.621 15.816C106.851 16.9486 107.462 18.4479 107.462 20.3139C107.462 21.8784 107.055 23.174 106.248 24.2007C105.441 25.2274 104.26 26.0015 102.703 26.5311C101.147 27.0608 99.2322 27.3215 96.9344 27.3215H85.1518V27.2889ZM91.7113 11.6603H95.2314C96.7714 11.6603 97.9448 11.4077 98.7515 10.8944C99.5582 10.381 99.9656 9.62322 99.9656 8.62912C99.9656 7.68391 99.5989 6.975 98.8737 6.50239C98.1485 6.02978 97.0485 5.79348 95.598 5.79348H91.7113V11.6685V11.6603ZM91.7113 22.0251H96.6492C98.0263 22.0251 99.0937 21.7725 99.8434 21.2754C100.601 20.7784 100.976 20.0695 100.976 19.1487C100.976 18.122 100.552 17.3642 99.6967 16.859C98.8492 16.3619 97.57 16.1093 95.8669 16.1093H91.695V22.0169L91.7113 22.0251Z" fill="black"/>
<path d="M121.356 27.8593C119.466 27.8593 117.763 27.566 116.255 26.9712C114.74 26.3763 113.461 25.5045 112.409 24.3392C111.358 23.1822 110.552 21.7318 109.997 20.0043C109.443 18.2768 109.166 16.2968 109.166 14.056C109.166 10.87 109.688 8.24617 110.723 6.17648C111.758 4.11494 113.216 2.56674 115.098 1.54005C116.972 0.513348 119.14 0 121.593 0C123.483 0 125.178 0.293342 126.677 0.871878C128.177 1.45041 129.448 2.32229 130.507 3.48751C131.558 4.64458 132.365 6.10314 132.919 7.83875C133.473 9.5825 133.75 11.5952 133.75 13.893C133.75 16.1908 133.457 18.2524 132.878 20.0043C132.3 21.7562 131.46 23.2148 130.368 24.38C129.277 25.537 127.965 26.4089 126.441 26.9875C124.917 27.566 123.222 27.8593 121.356 27.8593ZM121.593 22.4733C122.807 22.4733 123.809 22.1718 124.608 21.5606C125.406 20.9495 126.001 20.0369 126.392 18.8065C126.783 17.5761 126.979 16.036 126.979 14.17C126.979 12.1981 126.767 10.5685 126.351 9.27287C125.936 7.97727 125.308 6.99947 124.485 6.33945C123.662 5.67943 122.627 5.34534 121.389 5.34534C120.15 5.34534 119.205 5.66313 118.39 6.2987C117.584 6.93428 116.972 7.88764 116.565 9.15064C116.158 10.4218 115.954 12.0026 115.954 13.8849C115.954 15.319 116.068 16.5738 116.296 17.6494C116.524 18.7331 116.875 19.6295 117.347 20.3384C117.82 21.0554 118.407 21.5851 119.107 21.9355C119.808 22.2858 120.631 22.4651 121.576 22.4651L121.593 22.4733Z" fill="black"/>
<path d="M136.454 27.2889V0.570362H143.054V27.2889H136.454Z" fill="black"/>
<path d="M77.7046 10.9143H82.4804V5.81247H77.7046V0.921574H73.9646V0.994572C73.8064 2.82764 73.3874 4.19028 72.6995 5.10682C72.0195 6.00713 70.8571 6.55868 69.2283 6.77767H69.1176V10.9061H71.4027C72.652 10.9061 73.759 10.9061 75.3246 10.9224V11.2874C74.9134 11.3279 73.933 11.4658 72.9999 12.2039C71.7823 13.1772 71.466 14.4993 71.3948 14.8805V19.7633C71.3948 22.4561 71.9878 24.4433 73.1976 25.7248C74.3916 27.0064 76.2181 27.6471 78.6534 27.6471C79.1199 27.6471 79.6734 27.6147 80.3139 27.5417C80.9385 27.4849 81.6581 27.3227 82.4804 27.0794V21.3774C82.1404 21.5639 81.7688 21.7099 81.3734 21.8316C80.9781 21.937 80.5906 21.9938 80.2269 21.9938C79.5153 21.9938 78.9223 21.7748 78.4399 21.3368C77.9418 20.915 77.7046 20.1851 77.7046 19.155V10.9143Z" fill="black"/>
</svg>
